# xmcd
# 
# Track frame offsets:
#   150
#   13111
#   34918
#   51563
#   70427
#   84258
#   101784
#   119692
#   137044
#   154612
#   169778
#   187091
#   207012
#   223673
#   240243
# 
# Disc length: 3419 seconds
# 
# Revision: 0
# Processed by: cddbd v1.5.2PL0 Copyright (c) Steve Scherf et al.
# Submitted via: Synapstar 1.0 
# 
DISCID=d90d590f
DTITLE=Various Artist - sc ch vol 189
DYEAR=1900
DGENRE=Country
TTITLE0=Johnny Cash - God's Gonna Cut You Down
TTITLE1=Sara Evans - You'll Always Be My Baby
TTITLE2=Eric Church - Two Pink Lines
TTITLE3=The Reason Why - You Save Me
TTITLE4=Vince Gill - The Reason Why
TTITLE5=Trent Williams - On Again Tonight
TTITLE6=Pat Green - Feels Just Like It Should
TTITLE7=Lee Ann Womack - Finding My Way Back Home
TTITLE8=Phil Vassar - The Woman In My Life
TTITLE9=Toby Keith - Crash Here Tonight
TTITLE10=Tim McGraw - My Little Girl
TTITLE11=Rascal Flatts - My Wish
TTITLE12=Gretchen Wilson - One Bud Wiser
TTITLE13=Alan Jackson - Like Red On a Rose
TTITLE14=Bomshel - Country Music Love Song
EXTD=MediaType: Karaoke CD+G Producer: Sound Choice
EXTT0=
EXTT1=
EXTT2=
EXTT3=
EXTT4=
EXTT5=
EXTT6=
EXTT7=
EXTT8=
EXTT9=
EXTT10=
EXTT11=
EXTT12=
EXTT13=
EXTT14=
PLAYORDER=
